<svg width="40" height="40" viewBox="0 0 40 40" fill="none" xmlns="http://www.w3.org/2000/svg">
<path d="M40 40H0V0H40V40ZM18.2695 14.8047C18.1999 14.7984 18.1297 14.8068 18.0635 14.8291C17.9972 14.8514 17.9364 14.8874 17.8848 14.9346C17.8331 14.9817 17.7919 15.0395 17.7637 15.1035C17.7355 15.1674 17.7207 15.2368 17.7207 15.3066C17.7208 15.3764 17.7355 15.4459 17.7637 15.5098C17.7919 15.5736 17.8333 15.6307 17.8848 15.6777C17.9364 15.7249 17.9972 15.7609 18.0635 15.7832C18.1297 15.8055 18.1999 15.8139 18.2695 15.8076L23.3877 15.8105L14.9336 24.2646C14.8474 24.3607 14.8013 24.4862 14.8047 24.6152C14.8081 24.7444 14.8608 24.8676 14.9521 24.959C15.0435 25.0504 15.1667 25.103 15.2959 25.1064C15.425 25.1099 15.5504 25.0638 15.6465 24.9775L24.1006 16.5234L24.0967 21.6426C24.0997 21.7746 24.1537 21.9008 24.2471 21.9941C24.3403 22.0872 24.4659 22.1404 24.5977 22.1436C24.6635 22.1437 24.7292 22.1316 24.79 22.1064C24.8509 22.0813 24.9066 22.0436 24.9531 21.9971C24.9995 21.9506 25.0364 21.8956 25.0615 21.835C25.0867 21.7741 25.0997 21.7084 25.0996 21.6426V15.3066C25.1009 15.2405 25.0882 15.1746 25.0635 15.1133C25.0387 15.0519 25.0019 14.996 24.9551 14.9492C24.9083 14.9024 24.8524 14.8656 24.791 14.8408C24.7297 14.8161 24.6638 14.8034 24.5977 14.8047H18.2695Z" fill="#F6E3C5"/>
</svg>
